<svg width="24" height="24" viewBox="0 0 24 24" fill="none" xmlns="http://www.w3.org/2000/svg">
<path d="M9.29079 16.9777C9.10454 16.7904 9 16.5369 9 16.2727C9 16.0085 9.10454 15.7551 9.29079 15.5677L12.8308 11.9777L9.29079 8.43773C9.10454 8.25037 9 7.99692 9 7.73273C9 7.46855 9.10454 7.21509 9.29079 7.02773C9.38376 6.934 9.49436 6.85961 9.61622 6.80884C9.73807 6.75807 9.86878 6.73193 10.0008 6.73193C10.1328 6.73193 10.2635 6.75807 10.3854 6.80884C10.5072 6.85961 10.6178 6.934 10.7108 7.02773L14.9508 11.2677C15.0445 11.3607 15.1189 11.4713 15.1697 11.5932C15.2205 11.715 15.2466 11.8457 15.2466 11.9777C15.2466 12.1097 15.2205 12.2404 15.1697 12.3623C15.1189 12.4842 15.0445 12.5948 14.9508 12.6877L10.7108 16.9777C10.6178 17.0715 10.5072 17.1459 10.3854 17.1966C10.2635 17.2474 10.1328 17.2735 10.0008 17.2735C9.86878 17.2735 9.73807 17.2474 9.61622 17.1966C9.49436 17.1459 9.38376 17.0715 9.29079 16.9777Z" fill="#212329"/>
</svg>
